<svg width="70" height="41" viewBox="0 0 70 41" fill="none" xmlns="http://www.w3.org/2000/svg">
<path d="M9.67457 6.6074C9.09574 6.3166 5.49061 9.01453 5.18728 9.28307C3.85432 10.4616 2.04549 12.2217 3.57882 13.5658C5.13998 14.935 7.68903 15.3941 9.60222 16.4725C11.6031 17.5995 9.83597 19.7005 8.90512 20.9305C6.56478 24.0236 4.52915 27.3213 2.78989 30.5535C2.32516 31.4162 -1.01699 40.2808 0.309016 40.349C-0.470171 40.3086 2.96243 32.6267 3.27271 32.1258C5.46974 28.593 8.53501 25.2745 11.6865 22.0158C12.9597 20.6996 14.2718 19.0104 13.885 17.4451C13.4884 15.8422 10.9268 15.0115 8.78129 14.2699C5.94838 13.2903 4.39557 12.7477 5.8802 10.7287C6.20579 10.2877 9.95424 6.74654 9.67457 6.6074Z" fill="#ED165F"/>
<path d="M7.1909 2.47213C7.27021 2.43735 7.31195 2.27733 7.35648 2.1048C7.401 1.93227 7.44831 1.74999 7.53875 1.67068C7.78503 1.45501 8.00348 1.37292 8.23306 1.36457C8.46265 1.35622 8.70475 1.42023 8.99556 1.49536C9.30445 1.57467 9.56325 1.7166 9.82901 1.85296C10.0948 1.98931 10.3689 2.12289 10.707 2.1855C11.0367 2.24672 11.3303 2.24533 11.6225 2.22864C11.9147 2.21333 12.2055 2.18272 12.5297 2.18411C13.0195 2.18689 13.5858 2.2175 14.0324 2.37891C14.4791 2.54031 14.8061 2.8339 14.8158 3.36541C14.8269 3.96928 14.4332 4.20026 13.9712 4.3714C13.5093 4.54254 12.9805 4.65107 12.7259 5.01006C12.7037 5.04067 13.3284 5.50261 13.9851 5.97569C14.6433 6.44877 15.3348 6.93437 15.4475 7.0109C16.0736 7.43249 16.7262 7.77617 17.4261 8.04193C18.1246 8.30769 18.869 8.49553 19.676 8.60545C20.4273 8.70702 21.0326 8.79607 21.8396 8.68337C22.2793 8.62215 23.0863 8.50109 23.7945 8.01271C24.1104 7.79565 24.3678 7.52989 24.5654 7.32814C25.0413 6.84115 25.2347 6.50303 25.282 6.52112C25.3376 6.54339 25.1373 7.0596 24.7741 7.56607C24.6447 7.74556 24.3706 8.1282 23.9281 8.45796C23.1197 9.05905 22.1596 9.1801 21.3693 9.27889C20.2186 9.4236 19.2586 9.32898 18.6533 9.23715C17.472 9.06044 16.3116 8.84199 13.9392 7.49093C12.4727 6.65609 11.0521 5.72106 9.49646 5.14641C8.85224 4.90848 6.90845 4.24339 5.25128 3.4002C3.59412 2.55701 2.22219 1.53572 2.72031 0.585385C3.28662 -0.495737 4.11033 0.103959 4.93961 0.910974C5.76749 1.71799 6.60234 2.72954 7.1909 2.47213Z" fill="#ED165F"/>
<path d="M24.749 17.4812C24.9716 17.4812 25.1553 17.5271 25.2972 17.6203C25.4391 17.7135 25.5491 17.8193 25.6228 17.9361C25.6966 18.0544 25.7439 18.1783 25.7619 18.3077C25.78 18.4384 25.7828 18.547 25.7717 18.6332C25.7216 18.8684 25.6103 19.1661 25.4364 19.5265C25.2624 19.8869 25.0607 20.2834 24.8311 20.7176C24.6015 21.1517 24.3497 21.6136 24.077 22.1034C23.8042 22.5932 23.544 23.0746 23.295 23.5449C23.0473 24.0166 22.8233 24.4758 22.6257 24.921C22.4268 25.3676 22.2848 25.7642 22.1972 26.112C22.1234 26.3973 22.1318 26.5559 22.225 26.5865C22.3182 26.6171 22.488 26.5462 22.737 26.3722C23.1712 26.087 23.6303 25.7113 24.1131 25.2466C24.5973 24.7819 25.0774 24.2851 25.5546 23.7578C26.0319 23.2304 26.491 22.6975 26.9307 22.1577C27.3704 21.6178 27.7614 21.128 28.1023 20.6883C28.4432 20.2487 28.7256 19.8827 28.9483 19.5905C29.1709 19.2997 29.3017 19.1411 29.3393 19.1161C29.3893 19.0785 29.4603 19.0604 29.5535 19.0604C29.6468 19.0604 29.733 19.0827 29.8137 19.1258C29.8944 19.1689 29.9556 19.2288 30.0002 19.3025C30.0433 19.3763 30.0405 19.4695 29.9904 19.5822C29.9529 19.6559 29.836 19.8521 29.637 20.168C29.438 20.4838 29.1723 20.8776 28.837 21.3493C28.5016 21.821 28.112 22.3413 27.6654 22.9118C27.2188 23.4823 26.7373 24.0653 26.2239 24.6608C25.7091 25.2563 25.1664 25.8365 24.596 26.4001C24.0255 26.965 23.448 27.4701 22.865 27.9167C22.7663 27.9793 22.6202 28.0753 22.4281 28.2047C22.2361 28.3355 22.0093 28.4593 21.7491 28.5762C21.4889 28.6945 21.2093 28.7863 20.9115 28.8559C20.6137 28.9241 20.3229 28.9394 20.0377 28.9018C19.8137 28.8643 19.637 28.778 19.5076 28.6416C19.3768 28.5053 19.2877 28.3258 19.2376 28.1018C19.1876 27.8791 19.175 27.6217 19.2001 27.3295C19.2251 27.0387 19.2752 26.7243 19.349 26.3903C19.0762 26.6756 18.7409 26.9636 18.3444 27.2558C17.9478 27.548 17.5346 27.8082 17.1074 28.0378C16.6789 28.2673 16.2642 28.4593 15.8607 28.6152C15.4572 28.771 15.1135 28.8545 14.8283 28.8656C14.3816 28.8782 13.9976 28.8155 13.6748 28.6792C13.352 28.5428 13.089 28.3606 12.8845 28.131C12.68 27.9014 12.5311 27.644 12.4378 27.3587C12.3446 27.0735 12.2987 26.7883 12.2987 26.503C12.2987 26.1065 12.3613 25.6501 12.4852 25.1353C12.609 24.6205 12.7927 24.0876 13.0334 23.5352C13.2755 22.9842 13.5788 22.4373 13.9447 21.8975C14.3107 21.3576 14.7378 20.8553 15.229 20.3906C15.7188 19.9259 16.267 19.5224 16.875 19.1815C17.4831 18.8406 18.1593 18.6012 18.9037 18.4649C19.3629 18.3786 19.7719 18.3536 20.1309 18.3911C20.4913 18.4287 20.803 18.5122 21.0701 18.6416C21.3373 18.7724 21.5571 18.9421 21.731 19.1536C21.905 19.3651 22.0344 19.5877 22.122 19.8229C22.2709 19.5377 22.4045 19.29 22.5228 19.0785C22.641 18.8684 22.737 18.707 22.8108 18.5943C23.0084 18.2478 23.2143 17.996 23.4244 17.8401C23.6345 17.6857 23.8307 17.5799 24.0102 17.5243C24.1897 17.4686 24.3455 17.4464 24.4749 17.4589C24.6099 17.4742 24.7003 17.4812 24.749 17.4812ZM16.2837 27.2864C16.4938 27.2739 16.7637 27.1904 17.0935 27.0359C17.4219 26.8815 17.7628 26.67 18.1162 26.4029C18.4696 26.1357 18.8133 25.8254 19.1486 25.472C19.4839 25.1186 19.7692 24.7373 20.0043 24.3283C20.1908 23.8566 20.3911 23.3793 20.6096 22.8951C20.8266 22.4109 21.0409 21.9462 21.251 21.4995C21.3261 21.128 21.3317 20.8358 21.2691 20.6257C21.2065 20.4156 21.1174 20.2542 20.9992 20.1415C20.8809 20.0302 20.7487 19.9593 20.5984 19.9272C20.4496 19.8966 20.3313 19.8813 20.245 19.8813C20.0224 19.8688 19.7553 19.9648 19.445 20.1694C19.1347 20.3739 18.8063 20.6508 18.4585 20.9972C18.1106 21.3451 17.7641 21.7416 17.4163 22.1883C17.0684 22.6349 16.7526 23.0941 16.4674 23.5644C16.1821 24.0361 15.94 24.498 15.7424 24.9502C15.5435 25.4024 15.4224 25.8032 15.3793 26.1496C15.3361 26.4975 15.3793 26.7757 15.5101 26.9872C15.6423 27.1987 15.8997 27.2989 16.2837 27.2864Z" fill="#ED165F"/>
<path d="M33.4008 13.0343C33.5984 13.0217 33.7695 13.0621 33.9128 13.1553C34.0547 13.2485 34.1633 13.3696 34.2384 13.5185C34.3122 13.6674 34.3442 13.8315 34.3316 14.011C34.3191 14.1905 34.269 14.3547 34.1828 14.5036C33.6498 15.3593 33.0724 16.343 32.4518 17.452C31.8313 18.5623 31.2051 19.7492 30.5734 21.0154C31.2803 21.1142 32.0094 21.1893 32.7593 21.238C33.5093 21.2881 34.2106 21.2811 34.8618 21.2199C35.5129 21.1587 36.0806 21.0251 36.5648 20.8206C37.0491 20.616 37.383 20.3085 37.5694 19.8995C37.6807 19.6643 37.8199 19.5085 37.9882 19.4347C38.1552 19.361 38.3069 19.3513 38.4446 19.4069C38.581 19.4626 38.684 19.5655 38.7521 19.7144C38.8203 19.8633 38.8175 20.0372 38.7424 20.2348C38.5184 20.7802 38.197 21.2241 37.7754 21.565C37.3538 21.9059 36.8793 22.173 36.352 22.365C35.8246 22.557 35.2597 22.6851 34.6586 22.7463C34.0575 22.8089 33.462 22.8298 32.8721 22.8117C32.2821 22.7936 31.7283 22.7505 31.2065 22.6809C30.6862 22.6127 30.2326 22.5417 29.8485 22.4666C29.7483 22.6781 29.6537 22.8854 29.5605 23.09C29.4673 23.2945 29.3713 23.5018 29.2725 23.7133C29.3963 24.185 29.5299 24.7429 29.6732 25.3872C29.8151 26.0328 29.9306 26.7396 30.0169 27.5077C30.1032 28.2771 30.1532 29.0897 30.1658 29.9454C30.1783 30.8011 30.1226 31.6763 29.9988 32.5682C29.8123 33.858 29.5647 34.9531 29.2544 35.8519C28.9441 36.7508 28.6032 37.4896 28.2317 38.0657C27.8602 38.6417 27.4748 39.0883 27.0782 39.4056C26.6817 39.7214 26.3032 39.951 25.9428 40.0943C25.5825 40.2363 25.2583 40.317 24.9661 40.3364C24.6753 40.3545 24.4485 40.3517 24.2871 40.3267C23.7903 40.253 23.3562 40.0595 22.9847 39.7507C22.6132 39.4404 22.3155 39.0438 22.0914 38.5596C21.8688 38.0754 21.7255 37.5244 21.6629 36.9038C21.6017 36.2833 21.6323 35.6265 21.7561 34.9322C21.905 34.1266 22.1401 33.2305 22.4629 32.244C22.7857 31.2575 23.167 30.2251 23.6067 29.1467C24.0478 28.067 24.5222 26.9734 25.0301 25.863C25.5379 24.7527 26.0528 23.6771 26.5745 22.635C26.1404 22.1508 25.7675 21.8975 25.4586 21.8725C25.2611 21.86 25.1734 21.7695 25.1984 21.6025C25.2235 21.4356 25.3098 21.2519 25.4586 21.0543C25.6075 20.8554 25.7842 20.6731 25.9888 20.5061C26.1933 20.3391 26.37 20.2557 26.5189 20.2557C26.5439 20.2557 26.658 20.2807 26.8626 20.3294C27.0671 20.3795 27.3301 20.4352 27.6529 20.4964C28.0244 19.7645 28.382 19.0799 28.7229 18.4413C29.0638 17.8026 29.3713 17.2349 29.644 16.7382C29.9167 16.2429 30.1463 15.8268 30.3327 15.4915C30.5192 15.1562 30.643 14.9335 30.7042 14.8222C30.8656 14.5245 31.0702 14.2671 31.3179 14.05C31.5655 13.8329 31.8229 13.6534 32.0901 13.5101C32.3572 13.3682 32.6077 13.2597 32.8428 13.1845C33.078 13.1094 33.2644 13.0593 33.4008 13.0343ZM28.9163 32.1981C29.0401 30.9695 29.0346 29.823 28.8982 28.7558C28.7618 27.6886 28.5503 26.7215 28.2651 25.8533C27.7809 26.933 27.3189 27.9988 26.8793 29.0535C26.4382 30.1082 26.0486 31.1128 25.7077 32.0673C25.3668 33.0218 25.0816 33.9067 24.852 34.7193C24.6224 35.5319 24.468 36.2387 24.3873 36.8398C24.3066 37.4409 24.3135 37.9182 24.4053 38.2716C24.4986 38.625 24.7003 38.8198 25.0106 38.8574C25.6924 38.9325 26.2503 38.7711 26.6845 38.3746C27.1186 37.978 27.4748 37.4465 27.7545 36.7842C28.0341 36.1205 28.2595 35.383 28.4335 34.5704C28.606 33.7579 28.7674 32.9662 28.9163 32.1981Z" fill="#ED165F"/>
<path d="M46.0514 17.4812C46.274 17.4812 46.4577 17.5271 46.5996 17.6203C46.7415 17.7135 46.8514 17.8193 46.9252 17.9361C46.9989 18.0544 47.0462 18.1783 47.0643 18.3077C47.0824 18.4384 47.0852 18.547 47.0741 18.6332C47.024 18.8684 46.9127 19.1661 46.7387 19.5265C46.5648 19.8869 46.363 20.2834 46.1335 20.7176C45.9039 21.1517 45.652 21.6136 45.3793 22.1034C45.1066 22.5932 44.8464 23.0746 44.5974 23.5449C44.3497 24.0166 44.1257 24.4758 43.9281 24.921C43.7291 25.3676 43.5872 25.7642 43.4995 26.112C43.4258 26.3973 43.4341 26.5559 43.5274 26.5865C43.6206 26.6171 43.7903 26.5462 44.0394 26.3722C44.4735 26.087 44.9327 25.7113 45.4155 25.2466C45.8997 24.7819 46.3797 24.2851 46.857 23.7578C47.3343 23.2304 47.7934 22.6975 48.2331 22.1577C48.6728 21.6178 49.0638 21.128 49.4047 20.6883C49.7456 20.2487 50.028 19.8827 50.2506 19.5905C50.4733 19.2997 50.6041 19.1411 50.6416 19.1161C50.6917 19.0785 50.7627 19.0604 50.8559 19.0604C50.9491 19.0604 51.0354 19.0827 51.1161 19.1258C51.1968 19.1689 51.258 19.2288 51.3025 19.3025C51.3457 19.3763 51.3429 19.4695 51.2928 19.5822C51.2552 19.6559 51.1384 19.8521 50.9394 20.168C50.7404 20.4838 50.4747 20.8776 50.1393 21.3493C49.804 21.821 49.4144 22.3413 48.9678 22.9118C48.5211 23.4823 48.0397 24.0653 47.5263 24.6608C47.0114 25.2563 46.4688 25.8365 45.8983 26.4001C45.3278 26.965 44.7504 27.4701 44.1674 27.9167C44.0686 27.9793 43.9225 28.0753 43.7305 28.2047C43.5385 28.3355 43.3117 28.4593 43.0515 28.5762C42.7913 28.6945 42.5116 28.7863 42.2139 28.8559C41.9161 28.9241 41.6253 28.9394 41.3401 28.9018C41.1161 28.8643 40.9393 28.778 40.8099 28.6416C40.6792 28.5053 40.5901 28.3258 40.54 28.1018C40.4899 27.8791 40.4774 27.6217 40.5024 27.3295C40.5275 27.0387 40.5776 26.7243 40.6513 26.3903C40.3786 26.6756 40.0433 26.9636 39.6467 27.2558C39.2502 27.548 38.8369 27.8082 38.4098 28.0378C37.9812 28.2673 37.5666 28.4593 37.1631 28.6152C36.7596 28.771 36.4159 28.8545 36.1307 28.8656C35.684 28.8782 35.3 28.8155 34.9772 28.6792C34.6544 28.5428 34.3914 28.3606 34.1869 28.131C33.9823 27.9014 33.8334 27.644 33.7402 27.3587C33.647 27.0735 33.6011 26.7883 33.6011 26.503C33.6011 26.1065 33.6637 25.6501 33.7875 25.1353C33.9114 24.6205 34.095 24.0876 34.3357 23.5352C34.5778 22.9842 34.8812 22.4373 35.2471 21.8975C35.613 21.3576 36.0402 20.8553 36.5314 20.3906C37.0211 19.9259 37.5694 19.5224 38.1774 19.1815C38.7855 18.8406 39.4617 18.6012 40.2061 18.4649C40.6652 18.3786 41.0743 18.3536 41.4333 18.3911C41.7937 18.4287 42.1053 18.5122 42.3725 18.6416C42.6396 18.7724 42.8595 18.9421 43.0334 19.1536C43.2073 19.3651 43.3367 19.5877 43.4244 19.8229C43.5733 19.5377 43.7069 19.29 43.8251 19.0785C43.9434 18.8684 44.0394 18.707 44.1131 18.5943C44.3107 18.2478 44.5167 17.996 44.7268 17.8401C44.9369 17.6857 45.133 17.5799 45.3125 17.5243C45.492 17.4686 45.6479 17.4464 45.7773 17.4589C45.9122 17.4742 46.0027 17.4812 46.0514 17.4812ZM37.5861 27.2864C37.7962 27.2739 38.0661 27.1904 38.3959 27.0359C38.7242 26.8815 39.0651 26.67 39.4185 26.4029C39.772 26.1357 40.1156 25.8254 40.451 25.472C40.7863 25.1186 41.0715 24.7373 41.3067 24.3283C41.4931 23.8566 41.6935 23.3793 41.9119 22.8951C42.129 22.4109 42.3433 21.9462 42.5534 21.4995C42.6285 21.128 42.6341 20.8358 42.5715 20.6257C42.5089 20.4156 42.4198 20.2542 42.3015 20.1415C42.1833 20.0302 42.0511 19.9593 41.9008 19.9272C41.7519 19.8966 41.6337 19.8813 41.5474 19.8813C41.3248 19.8688 41.0576 19.9648 40.7473 20.1694C40.4371 20.3739 40.1087 20.6508 39.7608 20.9972C39.413 21.3451 39.0665 21.7416 38.7187 22.1883C38.3708 22.6349 38.055 23.0941 37.7697 23.5644C37.4845 24.0361 37.2424 24.498 37.0448 24.9502C36.8458 25.4024 36.7248 25.8032 36.6816 26.1496C36.6385 26.4975 36.6816 26.7757 36.8124 26.9872C36.9446 27.1987 37.202 27.2989 37.5861 27.2864Z" fill="#ED165F"/>
<path d="M50.7961 16.1232C51.0563 16.1107 51.2706 16.1663 51.4375 16.2902C51.6045 16.414 51.688 16.6185 51.688 16.9038C51.688 17.0401 51.6421 17.2321 51.5489 17.4812C51.4556 17.7289 51.3596 17.9779 51.2608 18.2256C51.1245 18.5108 50.9812 18.8142 50.8323 19.137C50.9185 19.2733 51.1356 19.3387 51.4835 19.3318C51.8299 19.3262 52.2279 19.2859 52.6745 19.2107C53.1211 19.1356 53.5803 19.0563 54.0506 18.9686C54.5223 18.8823 54.9244 18.8267 55.2597 18.8016C55.5199 18.7891 55.7189 18.842 55.8553 18.9603C55.9916 19.0785 56.0848 19.2246 56.1349 19.3972C56.185 19.5711 56.1934 19.7534 56.1628 19.9454C56.1321 20.1374 56.0723 20.296 55.986 20.4198C55.936 20.4936 55.8121 20.7079 55.6145 21.0613C55.4156 21.4147 55.1902 21.8433 54.9355 22.3456C54.6809 22.8478 54.4263 23.3849 54.173 23.9554C53.9184 24.5259 53.7167 25.056 53.5678 25.5458C53.4189 26.0356 53.3479 26.4544 53.3535 26.8022C53.3591 27.1501 53.4996 27.3421 53.7723 27.3797C53.9212 27.4047 54.1758 27.2934 54.5348 27.0443C54.8952 26.7967 55.3126 26.4613 55.7912 26.0397C56.2685 25.6181 56.7736 25.1284 57.3079 24.5704C57.8408 24.0125 58.3598 23.442 58.8621 22.859C59.3644 22.276 59.8235 21.6999 60.2382 21.1281C60.6542 20.5576 60.9798 20.0428 61.215 19.5836C61.2776 19.4598 61.3736 19.3763 61.503 19.3318C61.6338 19.2886 61.7632 19.2859 61.894 19.322C62.0247 19.3582 62.1291 19.4403 62.2098 19.5641C62.2905 19.688 62.3128 19.8619 62.2752 20.0845C62.2627 20.1471 62.1611 20.335 61.9677 20.6522C61.7757 20.9681 61.5183 21.3618 61.1955 21.8335C60.8727 22.3052 60.4886 22.8284 60.042 23.4058C59.5954 23.9832 59.1153 24.5621 58.6005 25.1451C58.0857 25.7281 57.543 26.286 56.9726 26.8189C56.4021 27.3518 55.8246 27.8082 55.2416 28.1867C54.6586 28.5651 54.0784 28.8434 53.5024 29.0243C52.925 29.2038 52.3698 29.2316 51.8369 29.1078C51.3276 28.984 50.9408 28.7794 50.6737 28.4942C50.4065 28.2089 50.2368 27.868 50.1616 27.4715C50.0879 27.0749 50.0879 26.6408 50.1616 26.1691C50.2354 25.6975 50.3509 25.2272 50.5053 24.7555C50.6597 24.2838 50.8434 23.8218 51.0535 23.3696C51.2636 22.9174 51.4695 22.5111 51.6671 22.1508C51.8647 21.7918 52.0358 21.4968 52.1792 21.2672C52.3211 21.0376 52.4115 20.8985 52.4491 20.8484C52.5855 20.6745 52.6008 20.5451 52.495 20.4574C52.3893 20.3711 52.2501 20.3586 52.0762 20.4198C51.8897 20.4936 51.6323 20.5562 51.304 20.6063C50.9756 20.6564 50.6458 20.6369 50.3175 20.5506C49.9891 20.4644 49.6997 20.2779 49.452 19.9927C49.2043 19.7074 49.0735 19.2678 49.061 18.6722C49.0485 18.4858 49.0763 18.2506 49.1445 17.9654C49.2127 17.6802 49.3212 17.4047 49.4701 17.1375C49.619 16.8704 49.8012 16.638 50.0183 16.4404C50.2409 16.2415 50.4983 16.1357 50.7961 16.1232Z" fill="#ED165F"/>
<path d="M62.7956 18.913C63.0196 18.9255 63.2047 18.9756 63.3535 19.0618C63.5024 19.1481 63.6137 19.2538 63.6889 19.3777C63.7626 19.5015 63.8099 19.6281 63.828 19.7589C63.8461 19.8897 63.8503 19.9983 63.8377 20.0845C63.764 20.4198 63.5775 20.8693 63.2798 21.4328C62.982 21.9977 62.6537 22.5988 62.2933 23.2374C61.9329 23.8761 61.5892 24.5245 61.2609 25.1812C60.9325 25.8394 60.7001 26.4279 60.5638 26.9483C60.4886 27.2336 60.529 27.3824 60.6848 27.395C60.8393 27.4075 61.041 27.3324 61.2901 27.1723C61.7117 26.8871 62.2014 26.5059 62.7594 26.0286C63.3174 25.5514 63.8878 25.0365 64.4708 24.4841C65.0538 23.9331 65.6271 23.3766 66.192 22.8186C66.7569 22.2607 67.262 21.7486 67.7086 21.2839C68.1553 20.8192 68.524 20.4352 68.8162 20.1304C69.107 19.8271 69.2726 19.6629 69.3087 19.6379C69.3588 19.6003 69.4298 19.5822 69.523 19.5822C69.6163 19.5822 69.7025 19.6045 69.7832 19.6476C69.8639 19.6908 69.9251 19.7506 69.9697 19.8243C70.0128 19.8995 70.01 19.9913 69.9599 20.104C69.9224 20.1777 69.7679 20.3809 69.4952 20.7093C69.2225 21.0376 68.8691 21.4481 68.4349 21.9379C68.0008 22.4276 67.4985 22.9731 66.9281 23.5756C66.3576 24.1766 65.7621 24.7819 65.1415 25.39C64.5209 25.998 63.8878 26.5893 63.2436 27.1668C62.598 27.7442 61.9844 28.2549 61.4014 28.7015C61.3151 28.7641 61.1718 28.8601 60.9728 28.9895C60.7739 29.1203 60.5485 29.2441 60.2938 29.361C60.0392 29.4793 59.7637 29.5753 59.4659 29.649C59.1682 29.7228 58.8704 29.7423 58.5727 29.7047C58.1135 29.6421 57.831 29.3916 57.7267 28.9506C57.6209 28.5109 57.6307 27.971 57.7545 27.3324C57.8783 26.6937 58.0857 25.9966 58.3779 25.2397C58.6687 24.4828 58.9762 23.7578 59.299 23.0635C59.6218 22.3692 59.9279 21.7486 60.2201 21.2032C60.5109 20.6578 60.7252 20.2668 60.8615 20.0316C61.0605 19.6963 61.265 19.4486 61.4751 19.2872C61.6852 19.1258 61.8814 19.0173 62.0609 18.9617C62.2404 18.906 62.3962 18.8837 62.5256 18.8963C62.6564 18.9074 62.7469 18.913 62.7956 18.913ZM63.0377 15.7879C63.149 15.5638 63.2826 15.3718 63.437 15.2104C63.5915 15.049 63.7556 14.9252 63.9296 14.8389C64.1035 14.7527 64.283 14.7026 64.4694 14.69C64.6559 14.6775 64.8284 14.7081 64.9898 14.7833C65.1512 14.8695 65.2848 14.9906 65.3905 15.1464C65.4963 15.3023 65.5673 15.4748 65.6048 15.6668C65.6424 15.8588 65.6452 16.0675 65.6146 16.2902C65.584 16.5142 65.5116 16.7368 65.4003 16.9594C65.289 17.1834 65.1554 17.3755 65.001 17.5369C64.8451 17.6983 64.6809 17.8221 64.5084 17.9084C64.3345 17.9946 64.155 18.0447 63.9685 18.0572C63.7821 18.0698 63.6082 18.0392 63.4481 17.964C63.1253 17.8026 62.9236 17.5118 62.8429 17.0888C62.7622 16.6686 62.8276 16.2345 63.0377 15.7879Z" fill="#ED165F"/>
</svg>
