<svg width="70" height="41" viewBox="0 0 70 41" fill="none" xmlns="http://www.w3.org/2000/svg">
<path d="M9.67457 6.60743C9.09574 6.31662 5.49061 9.01456 5.18728 9.2831C3.85432 10.4616 2.04549 12.2217 3.57882 13.5658C5.13998 14.935 7.68903 15.3942 9.60222 16.4725C11.6031 17.5995 9.83597 19.7006 8.90512 20.9306C6.56478 24.0237 4.52915 27.3213 2.78989 30.5535C2.32516 31.4162 -1.01699 40.2808 0.309016 40.349C-0.470171 40.3087 2.96243 32.6267 3.27271 32.1258C5.46974 28.593 8.53501 25.2745 11.6865 22.0159C12.9597 20.6996 14.2718 19.0104 13.885 17.4451C13.4884 15.8422 10.9268 15.0115 8.78129 14.2699C5.94838 13.2904 4.39557 12.7477 5.8802 10.7288C6.20579 10.2877 9.95424 6.74657 9.67457 6.60743Z" fill="#ED165F"/>
<path d="M7.1909 2.47213C7.27021 2.43735 7.31195 2.27733 7.35648 2.1048C7.401 1.93227 7.44831 1.74999 7.53875 1.67068C7.78503 1.45501 8.00348 1.37292 8.23306 1.36457C8.46265 1.35622 8.70475 1.42023 8.99556 1.49536C9.30445 1.57467 9.56325 1.7166 9.82901 1.85296C10.0948 1.98931 10.3689 2.12289 10.707 2.1855C11.0367 2.24672 11.3303 2.24533 11.6225 2.22864C11.9147 2.21333 12.2055 2.18272 12.5297 2.18411C13.0195 2.18689 13.5858 2.2175 14.0324 2.37891C14.4791 2.54031 14.8061 2.8339 14.8158 3.36541C14.8269 3.96928 14.4332 4.20026 13.9712 4.3714C13.5093 4.54254 12.9805 4.65107 12.7259 5.01006C12.7037 5.04067 13.3284 5.50261 13.9851 5.97569C14.6433 6.44877 15.3348 6.93437 15.4475 7.0109C16.0736 7.43249 16.7262 7.77617 17.4261 8.04193C18.1246 8.30769 18.869 8.49553 19.676 8.60545C20.4273 8.70702 21.0326 8.79607 21.8396 8.68337C22.2793 8.62215 23.0863 8.50109 23.7945 8.01271C24.1104 7.79565 24.3678 7.52989 24.5654 7.32814C25.0413 6.84115 25.2347 6.50303 25.282 6.52112C25.3376 6.54339 25.1373 7.0596 24.7741 7.56607C24.6447 7.74556 24.3706 8.1282 23.9281 8.45796C23.1197 9.05905 22.1596 9.1801 21.3693 9.27889C20.2186 9.4236 19.2586 9.32898 18.6533 9.23715C17.472 9.06044 16.3116 8.84199 13.9392 7.49093C12.4727 6.65609 11.0521 5.72106 9.49646 5.14641C8.85224 4.90848 6.90845 4.24339 5.25128 3.4002C3.59412 2.55701 2.22219 1.53572 2.72031 0.585385C3.28662 -0.495737 4.11033 0.103959 4.93961 0.910974C5.76749 1.71799 6.60234 2.72954 7.1909 2.47213Z" fill="#ED165F"/>
<path d="M24.7491 17.4812C24.9717 17.4812 25.1554 17.5271 25.2973 17.6203C25.4392 17.7135 25.5491 17.8193 25.6229 17.9362C25.6966 18.0544 25.7439 18.1783 25.762 18.3077C25.7801 18.4385 25.7829 18.547 25.7718 18.6333C25.7217 18.8684 25.6103 19.1662 25.4364 19.5266C25.2625 19.8869 25.0607 20.2835 24.8312 20.7176C24.6016 21.1517 24.3497 21.6137 24.077 22.1034C23.8043 22.5932 23.5441 23.0746 23.295 23.5449C23.0474 24.0166 22.8234 24.4758 22.6258 24.921C22.4268 25.3677 22.2849 25.7642 22.1972 26.1121C22.1235 26.3973 22.1318 26.5559 22.2251 26.5865C22.3183 26.6172 22.488 26.5462 22.7371 26.3723C23.1712 26.087 23.6304 25.7113 24.1132 25.2466C24.5974 24.7819 25.0774 24.2852 25.5547 23.7578C26.0319 23.2305 26.4911 22.6976 26.9308 22.1577C27.3705 21.6178 27.7615 21.1281 28.1024 20.6884C28.4433 20.2487 28.7257 19.8827 28.9483 19.5906C29.171 19.2998 29.3017 19.1411 29.3393 19.1161C29.3894 19.0785 29.4604 19.0604 29.5536 19.0604C29.6468 19.0604 29.7331 19.0827 29.8138 19.1258C29.8945 19.169 29.9557 19.2288 30.0002 19.3025C30.0434 19.3763 30.0406 19.4695 29.9905 19.5822C29.9529 19.656 29.836 19.8521 29.6371 20.168C29.4381 20.4838 29.1723 20.8776 28.837 21.3493C28.5017 21.821 28.1121 22.3414 27.6655 22.9118C27.2188 23.4823 26.7374 24.0653 26.224 24.6608C25.7091 25.2564 25.1665 25.8366 24.596 26.4001C24.0255 26.965 23.4481 27.4701 22.8651 27.9167C22.7663 27.9793 22.6202 28.0753 22.4282 28.2047C22.2362 28.3355 22.0094 28.4594 21.7492 28.5763C21.489 28.6945 21.2093 28.7864 20.9116 28.8559C20.6138 28.9241 20.323 28.9394 20.0378 28.9018C19.8137 28.8643 19.637 28.778 19.5076 28.6417C19.3768 28.5053 19.2878 28.3258 19.2377 28.1018C19.1876 27.8792 19.1751 27.6218 19.2001 27.3296C19.2252 27.0388 19.2753 26.7243 19.349 26.3904C19.0763 26.6756 18.741 26.9636 18.3444 27.2558C17.9479 27.548 17.5346 27.8082 17.1075 28.0378C16.6789 28.2674 16.2643 28.4594 15.8608 28.6152C15.4573 28.7711 15.1136 28.8545 14.8283 28.8657C14.3817 28.8782 13.9977 28.8156 13.6749 28.6792C13.3521 28.5429 13.0891 28.3606 12.8845 28.131C12.68 27.9014 12.5311 27.644 12.4379 27.3588C12.3447 27.0735 12.2988 26.7883 12.2988 26.5031C12.2988 26.1065 12.3614 25.6501 12.4852 25.1353C12.6091 24.6205 12.7927 24.0876 13.0334 23.5352C13.2755 22.9842 13.5789 22.4374 13.9448 21.8975C14.3107 21.3576 14.7379 20.8553 15.2291 20.3906C15.7188 19.9259 16.2671 19.5224 16.8751 19.1815C17.4831 18.8406 18.1594 18.6013 18.9038 18.4649C19.3629 18.3786 19.772 18.3536 20.131 18.3912C20.4914 18.4287 20.803 18.5122 21.0702 18.6416C21.3373 18.7724 21.5572 18.9422 21.7311 19.1537C21.905 19.3651 22.0344 19.5878 22.1221 19.8229C22.271 19.5377 22.4045 19.29 22.5228 19.0785C22.6411 18.8684 22.7371 18.707 22.8108 18.5943C23.0084 18.2478 23.2143 17.996 23.4244 17.8402C23.6346 17.6857 23.8307 17.58 24.0102 17.5243C24.1897 17.4687 24.3456 17.4464 24.475 17.4589C24.6099 17.4742 24.7004 17.4812 24.7491 17.4812ZM16.2838 27.2864C16.4939 27.2739 16.7638 27.1904 17.0936 27.036C17.4219 26.8815 17.7628 26.67 18.1162 26.4029C18.4697 26.1357 18.8133 25.8254 19.1487 25.472C19.484 25.1186 19.7692 24.7374 20.0044 24.3283C20.1908 23.8566 20.3912 23.3794 20.6096 22.8951C20.8267 22.4109 21.041 21.9462 21.2511 21.4996C21.3262 21.1281 21.3318 20.8359 21.2692 20.6258C21.2065 20.4157 21.1175 20.2543 20.9992 20.1416C20.881 20.0302 20.7488 19.9593 20.5985 19.9273C20.4496 19.8967 20.3314 19.8814 20.2451 19.8814C20.0225 19.8688 19.7553 19.9648 19.445 20.1694C19.1347 20.3739 18.8064 20.6508 18.4585 20.9973C18.1107 21.3451 17.7642 21.7417 17.4164 22.1883C17.0685 22.635 16.7527 23.0941 16.4674 23.5644C16.1822 24.0361 15.9401 24.498 15.7425 24.9503C15.5435 25.4025 15.4225 25.8032 15.3793 26.1496C15.3362 26.4975 15.3793 26.7758 15.5101 26.9873C15.6423 27.1988 15.8997 27.2989 16.2838 27.2864Z" fill="#ED165F"/>
<path d="M33.4008 13.0343C33.5984 13.0218 33.7696 13.0621 33.9129 13.1553C34.0548 13.2486 34.1633 13.3696 34.2385 13.5185C34.3122 13.6674 34.3442 13.8316 34.3317 14.0111C34.3192 14.1906 34.2691 14.3547 34.1828 14.5036C33.6499 15.3593 33.0725 16.3431 32.4519 17.452C31.8313 18.5624 31.2052 19.7492 30.5735 21.0154C31.2803 21.1142 32.0094 21.1893 32.7594 21.238C33.5094 21.2881 34.2106 21.2812 34.8618 21.2199C35.513 21.1587 36.0807 21.0251 36.5649 20.8206C37.0491 20.6161 37.383 20.3086 37.5695 19.8995C37.6808 19.6643 37.8199 19.5085 37.9883 19.4348C38.1553 19.361 38.3069 19.3513 38.4447 19.4069C38.581 19.4626 38.684 19.5656 38.7522 19.7144C38.8204 19.8633 38.8176 20.0372 38.7424 20.2348C38.5184 20.7803 38.197 21.2241 37.7754 21.565C37.3538 21.9059 36.8793 22.173 36.352 22.3651C35.8247 22.5571 35.2597 22.6851 34.6587 22.7463C34.0576 22.8089 33.4621 22.8298 32.8721 22.8117C32.2821 22.7936 31.7284 22.7505 31.2066 22.6809C30.6862 22.6127 30.2326 22.5418 29.8486 22.4666C29.7484 22.6781 29.6538 22.8855 29.5605 23.09C29.4673 23.2945 29.3713 23.5018 29.2725 23.7133C29.3964 24.185 29.5299 24.743 29.6733 25.3872C29.8152 26.0328 29.9307 26.7396 30.0169 27.5077C30.1032 28.2771 30.1533 29.0897 30.1658 29.9454C30.1783 30.8012 30.1227 31.6764 29.9988 32.5682C29.8124 33.8581 29.5647 34.9531 29.2544 35.852C28.9442 36.7508 28.6033 37.4896 28.2318 38.0657C27.8603 38.6417 27.4748 39.0884 27.0783 39.4056C26.6817 39.7215 26.3033 39.951 25.9429 40.0944C25.5825 40.2363 25.2583 40.317 24.9661 40.3365C24.6753 40.3546 24.4485 40.3518 24.2871 40.3267C23.7904 40.253 23.3563 40.0596 22.9848 39.7507C22.6133 39.4404 22.3155 39.0438 22.0915 38.5596C21.8689 38.0754 21.7255 37.5244 21.6629 36.9039C21.6017 36.2833 21.6323 35.6266 21.7562 34.9322C21.905 34.1266 22.1402 33.2306 22.463 32.244C22.7858 31.2575 23.167 30.2251 23.6067 29.1468C24.0478 28.067 24.5223 26.9734 25.0301 25.8631C25.538 24.7527 26.0528 23.6772 26.5746 22.635C26.1405 22.1508 25.7676 21.8976 25.4587 21.8725C25.2611 21.86 25.1734 21.7695 25.1985 21.6026C25.2235 21.4356 25.3098 21.2519 25.4587 21.0544C25.6076 20.8554 25.7843 20.6731 25.9888 20.5061C26.1933 20.3392 26.3701 20.2557 26.5189 20.2557C26.544 20.2557 26.6581 20.2807 26.8626 20.3294C27.0671 20.3795 27.3301 20.4352 27.6529 20.4964C28.0244 19.7645 28.382 19.08 28.7229 18.4413C29.0638 17.8026 29.3713 17.235 29.644 16.7382C29.9167 16.2429 30.1463 15.8268 30.3328 15.4915C30.5192 15.1562 30.6431 14.9336 30.7043 14.8223C30.8657 14.5245 31.0702 14.2671 31.3179 14.05C31.5656 13.833 31.823 13.6535 32.0901 13.5102C32.3573 13.3682 32.6077 13.2597 32.8429 13.1846C33.078 13.1094 33.2645 13.0593 33.4008 13.0343ZM28.9163 32.1981C29.0402 30.9695 29.0346 29.823 28.8982 28.7558C28.7619 27.6886 28.5504 26.7216 28.2652 25.8533C27.7809 26.9331 27.319 27.9989 26.8793 29.0536C26.4382 30.1082 26.0486 31.1128 25.7077 32.0673C25.3669 33.0218 25.0816 33.9068 24.852 34.7194C24.6224 35.5319 24.468 36.2388 24.3873 36.8399C24.3066 37.441 24.3136 37.9182 24.4054 38.2716C24.4986 38.625 24.7004 38.8198 25.0107 38.8574C25.6924 38.9325 26.2504 38.7711 26.6845 38.3746C27.1186 37.978 27.4748 37.4465 27.7545 36.7842C28.0342 36.1205 28.2596 35.3831 28.4335 34.5705C28.606 33.7579 28.7674 32.9662 28.9163 32.1981Z" fill="#ED165F"/>
<path d="M46.0515 17.4812C46.2741 17.4812 46.4578 17.5271 46.5997 17.6203C46.7416 17.7135 46.8515 17.8193 46.9253 17.9362C46.999 18.0544 47.0463 18.1783 47.0644 18.3077C47.0825 18.4385 47.0853 18.547 47.0742 18.6333C47.0241 18.8684 46.9128 19.1662 46.7388 19.5266C46.5649 19.8869 46.3632 20.2835 46.1336 20.7176C45.904 21.1517 45.6522 21.6137 45.3794 22.1034C45.1067 22.5932 44.8465 23.0746 44.5975 23.5449C44.3498 24.0166 44.1258 24.4758 43.9282 24.921C43.7292 25.3677 43.5873 25.7642 43.4997 26.1121C43.4259 26.3973 43.4343 26.5559 43.5275 26.5865C43.6207 26.6172 43.7905 26.5462 44.0395 26.3723C44.4736 26.087 44.9328 25.7113 45.4156 25.2466C45.8998 24.7819 46.3799 24.2852 46.8571 23.7578C47.3344 23.2305 47.7935 22.6976 48.2332 22.1577C48.6729 21.6178 49.0639 21.1281 49.4048 20.6884C49.7457 20.2487 50.0281 19.8827 50.2507 19.5906C50.4734 19.2998 50.6042 19.1411 50.6417 19.1161C50.6918 19.0785 50.7628 19.0604 50.856 19.0604C50.9492 19.0604 51.0355 19.0827 51.1162 19.1258C51.1969 19.169 51.2581 19.2288 51.3027 19.3025C51.3458 19.3763 51.343 19.4695 51.2929 19.5822C51.2553 19.656 51.1385 19.8521 50.9395 20.168C50.7405 20.4838 50.4748 20.8776 50.1394 21.3493C49.8041 21.821 49.4145 22.3414 48.9679 22.9118C48.5212 23.4823 48.0398 24.0653 47.5264 24.6608C47.0116 25.2564 46.4689 25.8366 45.8984 26.4001C45.328 26.965 44.7505 27.4701 44.1675 27.9167C44.0687 27.9793 43.9226 28.0753 43.7306 28.2047C43.5386 28.3355 43.3118 28.4594 43.0516 28.5763C42.7914 28.6945 42.5118 28.7864 42.214 28.8559C41.9162 28.9241 41.6254 28.9394 41.3402 28.9018C41.1162 28.8643 40.9395 28.778 40.8101 28.6417C40.6793 28.5053 40.5902 28.3258 40.5401 28.1018C40.49 27.8792 40.4775 27.6218 40.5026 27.3296C40.5276 27.0388 40.5777 26.7243 40.6514 26.3904C40.3787 26.6756 40.0434 26.9636 39.6468 27.2558C39.2503 27.548 38.837 27.8082 38.4099 28.0378C37.9813 28.2674 37.5667 28.4594 37.1632 28.6152C36.7597 28.7711 36.416 28.8545 36.1308 28.8657C35.6841 28.8782 35.3001 28.8156 34.9773 28.6792C34.6545 28.5429 34.3915 28.3606 34.187 28.131C33.9824 27.9014 33.8336 27.644 33.7403 27.3588C33.6471 27.0735 33.6012 26.7883 33.6012 26.5031C33.6012 26.1065 33.6638 25.6501 33.7876 25.1353C33.9115 24.6205 34.0951 24.0876 34.3359 23.5352C34.578 22.9842 34.8813 22.4374 35.2472 21.8975C35.6132 21.3576 36.0403 20.8553 36.5315 20.3906C37.0213 19.9259 37.5695 19.5224 38.1775 19.1815C38.7856 18.8406 39.4618 18.6013 40.2062 18.4649C40.6654 18.3786 41.0744 18.3536 41.4334 18.3912C41.7938 18.4287 42.1055 18.5122 42.3726 18.6416C42.6398 18.7724 42.8596 18.9422 43.0335 19.1537C43.2075 19.3651 43.3369 19.5878 43.4245 19.8229C43.5734 19.5377 43.707 19.29 43.8252 19.0785C43.9435 18.8684 44.0395 18.707 44.1133 18.5943C44.3108 18.2478 44.5168 17.996 44.7269 17.8402C44.937 17.6857 45.1332 17.58 45.3127 17.5243C45.4921 17.4687 45.648 17.4464 45.7774 17.4589C45.9123 17.4742 46.0028 17.4812 46.0515 17.4812ZM37.5862 27.2864C37.7963 27.2739 38.0662 27.1904 38.396 27.036C38.7243 26.8815 39.0652 26.67 39.4187 26.4029C39.7721 26.1357 40.1158 25.8254 40.4511 25.472C40.7864 25.1186 41.0716 24.7374 41.3068 24.3283C41.4932 23.8566 41.6936 23.3794 41.9121 22.8951C42.1291 22.4109 42.3434 21.9462 42.5535 21.4996C42.6286 21.1281 42.6342 20.8359 42.5716 20.6258C42.509 20.4157 42.4199 20.2543 42.3016 20.1416C42.1834 20.0302 42.0512 19.9593 41.9009 19.9273C41.752 19.8967 41.6338 19.8814 41.5475 19.8814C41.3249 19.8688 41.0577 19.9648 40.7474 20.1694C40.4372 20.3739 40.1088 20.6508 39.7609 20.9973C39.4131 21.3451 39.0666 21.7417 38.7188 22.1883C38.3709 22.635 38.0551 23.0941 37.7698 23.5644C37.4846 24.0361 37.2425 24.498 37.0449 24.9503C36.8459 25.4025 36.7249 25.8032 36.6818 26.1496C36.6386 26.4975 36.6818 26.7758 36.8126 26.9873C36.9447 27.1988 37.2021 27.2989 37.5862 27.2864Z" fill="#ED165F"/>
<path d="M50.7962 16.1232C51.0564 16.1107 51.2707 16.1663 51.4376 16.2901C51.6046 16.414 51.6881 16.6185 51.6881 16.9038C51.6881 17.0401 51.6422 17.2321 51.5489 17.4812C51.4557 17.7289 51.3597 17.9779 51.2609 18.2256C51.1246 18.5108 50.9812 18.8142 50.8324 19.137C50.9186 19.2733 51.1357 19.3387 51.4835 19.3318C51.83 19.3262 52.2279 19.2858 52.6746 19.2107C53.1212 19.1356 53.5804 19.0563 54.0507 18.9686C54.5224 18.8823 54.9245 18.8267 55.2598 18.8016C55.52 18.7891 55.719 18.842 55.8553 18.9602C55.9917 19.0785 56.0849 19.2246 56.135 19.3972C56.1851 19.5711 56.1935 19.7534 56.1628 19.9454C56.1322 20.1374 56.0724 20.296 55.9861 20.4198C55.936 20.4936 55.8122 20.7079 55.6146 21.0613C55.4157 21.4147 55.1902 21.8432 54.9356 22.3455C54.681 22.8478 54.4264 23.3849 54.1731 23.9554C53.9185 24.5259 53.7167 25.056 53.5679 25.5458C53.419 26.0355 53.348 26.4544 53.3536 26.8022C53.3592 27.1501 53.4997 27.3421 53.7724 27.3796C53.9213 27.4047 54.1759 27.2934 54.5349 27.0443C54.8953 26.7966 55.3127 26.4613 55.7913 26.0397C56.2686 25.6181 56.7737 25.1284 57.308 24.5704C57.8409 24.0124 58.3599 23.442 58.8622 22.859C59.3645 22.276 59.8236 21.6999 60.2383 21.1281C60.6543 20.5576 60.9799 20.0428 61.215 19.5836C61.2776 19.4598 61.3737 19.3763 61.5031 19.3318C61.6338 19.2886 61.7632 19.2858 61.894 19.322C62.0248 19.3582 62.1292 19.4403 62.2099 19.5641C62.2906 19.688 62.3129 19.8619 62.2753 20.0845C62.2628 20.1471 62.1612 20.335 61.9678 20.6522C61.7758 20.968 61.5184 21.3618 61.1956 21.8335C60.8727 22.3052 60.4887 22.8284 60.0421 23.4058C59.5954 23.9832 59.1154 24.5621 58.6006 25.1451C58.0858 25.7281 57.5431 26.286 56.9726 26.8189C56.4022 27.3518 55.8247 27.8082 55.2417 28.1867C54.6587 28.5651 54.0785 28.8434 53.5025 29.0243C52.925 29.2038 52.3699 29.2316 51.837 29.1078C51.3277 28.9839 50.9409 28.7794 50.6737 28.4942C50.4066 28.2089 50.2368 27.868 50.1617 27.4715C50.088 27.0749 50.088 26.6408 50.1617 26.1691C50.2355 25.6974 50.3509 25.2271 50.5054 24.7555C50.6598 24.2838 50.8435 23.8218 51.0536 23.3696C51.2637 22.9174 51.4696 22.5111 51.6672 22.1507C51.8648 21.7918 52.0359 21.4968 52.1792 21.2672C52.3212 21.0376 52.4116 20.8985 52.4492 20.8484C52.5855 20.6745 52.6008 20.5451 52.4951 20.4574C52.3893 20.3711 52.2502 20.3586 52.0763 20.4198C51.8898 20.4936 51.6324 20.5562 51.304 20.6063C50.9757 20.6564 50.6459 20.6369 50.3175 20.5506C49.9892 20.4644 49.6998 20.2779 49.4521 19.9927C49.2044 19.7074 49.0736 19.2678 49.0611 18.6722C49.0486 18.4858 49.0764 18.2506 49.1446 17.9654C49.2128 17.6802 49.3213 17.4047 49.4702 17.1375C49.6191 16.8704 49.8013 16.638 50.0184 16.4404C50.241 16.2414 50.4984 16.1357 50.7962 16.1232Z" fill="#ED165F"/>
<path d="M62.7957 18.9129C63.0197 18.9255 63.2047 18.9756 63.3536 19.0618C63.5025 19.1481 63.6138 19.2538 63.689 19.3777C63.7627 19.5015 63.81 19.6281 63.8281 19.7589C63.8462 19.8897 63.8504 19.9982 63.8378 20.0845C63.7641 20.4198 63.5776 20.8693 63.2799 21.4328C62.9821 21.9977 62.6537 22.5988 62.2934 23.2374C61.933 23.8761 61.5893 24.5245 61.2609 25.1812C60.9326 25.8394 60.7002 26.4279 60.5639 26.9483C60.4887 27.2335 60.5291 27.3824 60.6849 27.395C60.8394 27.4075 61.0411 27.3323 61.2902 27.1723C61.7118 26.8871 62.2015 26.5058 62.7595 26.0286C63.3174 25.5513 63.8879 25.0365 64.4709 24.4841C65.0539 23.9331 65.6272 23.3766 66.1921 22.8186C66.757 22.2607 67.2621 21.7486 67.7087 21.2839C68.1554 20.8192 68.5241 20.4351 68.8163 20.1304C69.1071 19.8271 69.2727 19.6629 69.3088 19.6379C69.3589 19.6003 69.4299 19.5822 69.5231 19.5822C69.6163 19.5822 69.7026 19.6045 69.7833 19.6476C69.864 19.6907 69.9252 19.7506 69.9698 19.8243C70.0129 19.8994 70.0101 19.9913 69.96 20.104C69.9224 20.1777 69.768 20.3809 69.4953 20.7092C69.2226 21.0376 68.8692 21.4481 68.435 21.9379C68.0009 22.4276 67.4986 22.9731 66.9281 23.5755C66.3577 24.1766 65.7621 24.7819 65.1416 25.3899C64.521 25.998 63.8879 26.5893 63.2437 27.1668C62.5981 27.7442 61.9845 28.2548 61.4015 28.7015C61.3152 28.7641 61.1719 28.8601 60.9729 28.9895C60.774 29.1203 60.5485 29.2441 60.2939 29.361C60.0393 29.4793 59.7638 29.5753 59.466 29.649C59.1683 29.7228 58.8705 29.7423 58.5728 29.7047C58.1136 29.6421 57.8311 29.3916 57.7268 28.9505C57.621 28.5109 57.6308 27.971 57.7546 27.3323C57.8784 26.6937 58.0858 25.9966 58.378 25.2397C58.6688 24.4827 58.9763 23.7578 59.2991 23.0635C59.6219 22.3692 59.928 21.7486 60.2202 21.2032C60.511 20.6578 60.7253 20.2668 60.8616 20.0316C61.0606 19.6963 61.2651 19.4486 61.4752 19.2872C61.6853 19.1258 61.8815 19.0173 62.061 18.9616C62.2405 18.906 62.3963 18.8837 62.5257 18.8962C62.6565 18.9074 62.747 18.9129 62.7957 18.9129ZM63.0378 15.7878C63.1491 15.5638 63.2827 15.3718 63.4371 15.2104C63.5916 15.049 63.7557 14.9252 63.9297 14.8389C64.1036 14.7526 64.2831 14.7025 64.4695 14.69C64.656 14.6775 64.8285 14.7081 64.9899 14.7832C65.1513 14.8695 65.2849 14.9906 65.3906 15.1464C65.4964 15.3022 65.5674 15.4748 65.6049 15.6668C65.6425 15.8588 65.6453 16.0675 65.6147 16.2901C65.584 16.5142 65.5117 16.7368 65.4004 16.9594C65.2891 17.1834 65.1555 17.3754 65.001 17.5368C64.8452 17.6982 64.681 17.8221 64.5085 17.9083C64.3346 17.9946 64.1551 18.0447 63.9686 18.0572C63.7822 18.0698 63.6083 18.0391 63.4482 17.964C63.1254 17.8026 62.9237 17.5118 62.843 17.0888C62.7623 16.6686 62.8277 16.2345 63.0378 15.7878Z" fill="#ED165F"/>
</svg>
