<svg width="14" height="14" viewBox="0 0 14 14" fill="none" xmlns="http://www.w3.org/2000/svg">
<path d="M10.6667 10.6667C9.92667 10.6667 9.33333 11.26 9.33333 12C9.33333 12.3536 9.47381 12.6928 9.72386 12.9428C9.97391 13.1929 10.313 13.3333 10.6667 13.3333C11.0203 13.3333 11.3594 13.1929 11.6095 12.9428C11.8595 12.6928 12 12.3536 12 12C12 11.6464 11.8595 11.3072 11.6095 11.0572C11.3594 10.8071 11.0203 10.6667 10.6667 10.6667ZM0 0V1.33333H1.33333L3.73333 6.39333L2.82667 8.02667C2.72667 8.21333 2.66667 8.43333 2.66667 8.66667C2.66667 9.02029 2.80714 9.35943 3.05719 9.60948C3.30724 9.85952 3.64638 10 4 10H12V8.66667H4.28C4.2358 8.66667 4.1934 8.64911 4.16215 8.61785C4.13089 8.5866 4.11333 8.5442 4.11333 8.5C4.11333 8.46667 4.12 8.44 4.13333 8.42L4.73333 7.33333H9.7C10.2 7.33333 10.64 7.05333 10.8667 6.64667L13.2533 2.33333C13.3 2.22667 13.3333 2.11333 13.3333 2C13.3333 1.82319 13.2631 1.65362 13.1381 1.5286C13.013 1.40357 12.8435 1.33333 12.6667 1.33333H2.80667L2.18 0H0ZM4 10.6667C3.26 10.6667 2.66667 11.26 2.66667 12C2.66667 12.3536 2.80714 12.6928 3.05719 12.9428C3.30724 13.1929 3.64638 13.3333 4 13.3333C4.35362 13.3333 4.69276 13.1929 4.94281 12.9428C5.19286 12.6928 5.33333 12.3536 5.33333 12C5.33333 11.6464 5.19286 11.3072 4.94281 11.0572C4.69276 10.8071 4.35362 10.6667 4 10.6667Z" fill="#ED165F"/>
<path d="M7.5 2.66675V5.66675M6 4.16675H9" stroke="white" stroke-width="0.5"/>
</svg>
